<svg width="20" height="21" viewBox="0 0 20 21" fill="none" xmlns="http://www.w3.org/2000/svg">
<path fill-rule="evenodd" clip-rule="evenodd" d="M9.99967 1.33325C10.4599 1.33325 10.833 1.70635 10.833 2.16659V9.66658H18.333C18.7932 9.66658 19.1663 10.0397 19.1663 10.4999C19.1663 10.9602 18.7932 11.3333 18.333 11.3333H10.833V18.8333C10.833 19.2935 10.4599 19.6666 9.99967 19.6666C9.53944 19.6666 9.16634 19.2935 9.16634 18.8333V11.3333H1.66634C1.2061 11.3333 0.833008 10.9602 0.833008 10.4999C0.833008 10.0397 1.2061 9.66658 1.66634 9.66658H9.16634V2.16659C9.16634 1.70635 9.53944 1.33325 9.99967 1.33325Z" fill="#495286"/>
</svg>
