<svg width="16" height="16" viewBox="0 0 16 16" fill="none" xmlns="http://www.w3.org/2000/svg">
<path fill-rule="evenodd" clip-rule="evenodd" d="M15.1663 12V4.66663C15.1663 3.56206 14.2709 2.66663 13.1663 2.66663L2.83301 2.66664C1.72844 2.66664 0.833008 3.56207 0.833008 4.66664V12C0.833008 13.1045 1.72844 14 2.83301 14L13.1663 14C14.2709 14 15.1663 13.1045 15.1663 12ZM13.833 6.17293V12C13.833 12.3681 13.5345 12.6666 13.1663 12.6666L2.83301 12.6666C2.46482 12.6666 2.16634 12.3681 2.16634 12L2.16634 6.17285L6.87512 9.37481C7.55384 9.83634 8.44564 9.83634 9.12436 9.37481L13.833 6.17293ZM13.8254 4.5657C13.7768 4.2454 13.5002 3.99996 13.1663 3.99996L2.83301 3.99997C2.49916 3.99997 2.22262 4.24537 2.17394 4.56562L7.62487 8.27225C7.85111 8.42609 8.14837 8.42609 8.37461 8.27225L13.8254 4.5657Z" fill="white"/>
</svg>
